<?xml version="1.0" standalone="no"?><!DOCTYPE svg PUBLIC "-//W3C//DTD SVG 1.1//EN" "http://www.w3.org/Graphics/SVG/1.1/DTD/svg11.dtd"><svg height="800" node-id="1" sillyvg="true" template-height="800" template-width="800" version="1.1" viewBox="0 0 800 800" width="800" xmlns="http://www.w3.org/2000/svg" xmlns:xlink="http://www.w3.org/1999/xlink"><defs node-id="186"><mask height="195" id="mask0" maskUnits="userSpaceOnUse" node-id="7" width="136" x="128" y="474"><path d="M 234.80 474.50 L 156.80 474.50 L 152.80 474.80 L 149.10 475.50 L 145.60 476.80 L 142.20 478.40 L 139.20 480.50 L 136.40 482.90 L 134.00 485.70 L 131.90 488.70 L 130.30 492.10 L 129.00 495.60 L 128.30 499.30 L 128.00 503.30 L 128.00 639.80 L 128.30 643.70 L 129.00 647.40 L 130.30 651.00 L 131.90 654.30 L 134.00 657.40 L 136.40 660.10 L 139.20 662.60 L 142.20 664.60 L 145.60 666.30 L 149.10 667.50 L 152.80 668.30 L 156.80 668.60 L 234.80 668.60 L 238.80 668.30 L 242.50 667.50 L 246.00 666.30 L 249.40 664.60 L 252.40 662.60 L 255.20 660.10 L 257.60 657.40 L 259.70 654.30 L 261.30 651.00 L 262.60 647.40 L 263.30 643.70 L 263.60 639.80 L 263.60 503.30 L 263.30 499.30 L 262.60 495.60 L 261.30 492.10 L 259.70 488.70 L 257.60 485.70 L 255.20 482.90 L 252.40 480.50 L 249.40 478.40 L 246.00 476.80 L 242.50 475.50 L 238.80 474.80 L 234.80 474.50 Z" fill="#ffffff" fill-rule="nonzero" node-id="189" stroke="none" target-height="194.09998" target-width="135.6" target-x="128" target-y="474.5"></path></mask><mask height="306" id="mask1" maskUnits="userSpaceOnUse" node-id="16" width="306" x="381" y="127"><path d="M 534.00 432.90 L 542.50 432.70 L 550.70 432.00 L 558.90 430.90 L 566.80 429.40 L 574.60 427.50 L 582.40 425.10 L 589.90 422.40 L 597.20 419.30 L 604.30 415.80 L 611.20 412.00 L 619.50 406.80 L 627.40 401.00 L 635.00 394.80 L 642.10 388.10 L 648.80 381.00 L 655.00 373.40 L 660.80 365.50 L 666.00 357.20 L 669.80 350.30 L 673.30 343.20 L 676.40 335.90 L 679.10 328.40 L 681.50 320.60 L 683.40 312.80 L 684.90 304.90 L 686.00 296.70 L 686.70 288.50 L 686.90 280.00 L 686.70 271.50 L 686.00 263.20 L 684.90 255.10 L 683.40 247.10 L 681.50 239.30 L 679.10 231.60 L 676.40 224.00 L 673.30 216.80 L 669.80 209.70 L 666.00 202.80 L 660.80 194.40 L 655.00 186.50 L 648.80 178.90 L 642.10 171.80 L 635.00 165.10 L 627.40 158.90 L 619.50 153.10 L 611.20 147.90 L 604.30 144.10 L 597.20 140.60 L 589.90 137.50 L 582.40 134.80 L 574.60 132.50 L 566.80 130.50 L 558.90 129.00 L 550.70 127.90 L 542.50 127.20 L 534.00 127.00 L 525.50 127.20 L 517.20 127.90 L 509.10 129.00 L 501.10 130.50 L 493.30 132.50 L 485.60 134.80 L 478.00 137.50 L 470.80 140.60 L 463.70 144.10 L 456.80 147.90 L 448.40 153.10 L 440.50 158.90 L 432.90 165.10 L 425.80 171.80 L 419.10 178.90 L 412.90 186.50 L 407.10 194.40 L 401.90 202.80 L 398.10 209.70 L 394.60 216.80 L 391.50 224.00 L 388.80 231.60 L 386.50 239.30 L 384.50 247.10 L 383.00 255.10 L 381.90 263.20 L 381.20 271.50 L 381.00 280.00 L 381.20 288.50 L 381.90 296.70 L 383.00 304.90 L 384.50 312.80 L 386.50 320.60 L 388.80 328.40 L 391.50 335.90 L 394.60 343.20 L 398.10 350.30 L 401.90 357.20 L 407.10 365.50 L 412.90 373.40 L 419.10 381.00 L 425.80 388.10 L 432.90 394.80 L 440.50 401.00 L 448.40 406.80 L 456.80 412.00 L 463.70 415.80 L 470.80 419.30 L 478.00 422.40 L 485.60 425.10 L 493.30 427.50 L 501.10 429.40 L 509.10 430.90 L 517.20 432.00 L 525.50 432.70 L 534.00 432.90 Z" fill="#ffffff" fill-rule="nonzero" node-id="193" stroke="none" target-height="305.9" target-width="305.90002" target-x="381" target-y="127"></path></mask><mask height="70" id="mask2" maskUnits="userSpaceOnUse" node-id="24" width="101" x="484" y="287"><path d="M 484.90 356.50 L 488.40 348.30 L 492.20 340.80 L 496.30 333.80 L 500.80 327.50 L 505.60 321.60 L 510.70 316.30 L 516.20 311.40 L 522.00 307.00 L 528.20 303.00 L 534.70 299.50 L 541.80 296.40 L 549.20 293.70 L 557.20 291.50 L 565.60 289.80 L 574.70 288.60 L 584.30 287.80 L 575.20 295.20 L 569.60 300.20 L 566.50 303.40 L 563.50 307.30 L 556.80 318.10 L 555.40 319.30 L 545.70 320.90 L 541.70 325.70 L 538.10 329.10 L 535.10 331.50 L 532.40 333.10 L 529.90 333.90 L 527.80 334.20 L 523.20 337.30 L 518.70 339.80 L 514.40 341.60 L 510.10 342.90 L 502.40 344.10 L 499.00 345.30 L 495.60 347.00 L 492.10 349.40 L 488.60 352.50 L 484.90 356.50 Z" fill="#ffffff" fill-rule="nonzero" node-id="197" stroke="none" target-height="68.70001" target-width="99.399994" target-x="484.9" target-y="287.8"></path></mask><mask height="106" id="mask3" maskUnits="userSpaceOnUse" node-id="31" width="33" x="439" y="243"><path d="M 462.60 348.80 L 458.40 345.50 L 454.80 342.00 L 451.90 338.40 L 449.40 334.60 L 447.50 330.70 L 446.00 326.50 L 443.40 314.60 L 440.70 306.90 L 440.20 303.40 L 440.20 301.20 L 442.60 286.20 L 443.10 279.20 L 442.80 275.50 L 442.00 271.60 L 439.70 263.90 L 439.40 261.20 L 439.40 258.80 L 440.10 255.40 L 441.10 252.60 L 444.70 245.60 L 445.00 243.90 L 447.40 245.80 L 449.50 248.10 L 451.40 250.90 L 453.00 254.20 L 454.50 258.00 L 457.40 268.70 L 459.40 273.90 L 465.30 286.60 L 466.40 289.90 L 466.90 295.10 L 467.10 305.60 L 467.60 307.80 L 469.70 311.50 L 470.60 314.00 L 471.00 316.90 L 470.80 320.70 L 470.10 324.90 L 468.50 330.40 L 462.60 348.80 Z" fill="#ffffff" fill-rule="nonzero" node-id="201" stroke="none" target-height="104.899994" target-width="31.600006" target-x="439.4" target-y="243.9"></path></mask><mask height="89" id="mask4" maskUnits="userSpaceOnUse" node-id="36" width="76" x="384" y="289"><path d="M 460.00 377.60 L 456.90 366.90 L 453.40 357.00 L 449.60 348.00 L 445.40 339.70 L 440.90 332.10 L 436.10 325.10 L 431.00 318.80 L 425.50 313.00 L 419.70 307.80 L 413.50 303.10 L 407.00 298.90 L 400.10 295.20 L 392.80 292.00 L 385.00 289.30 L 384.90 292.60 L 385.20 295.70 L 386.00 298.80 L 387.40 301.90 L 389.20 304.90 L 391.70 307.90 L 394.80 310.90 L 398.70 314.00 L 397.60 316.70 L 397.10 319.10 L 397.20 321.50 L 397.90 323.70 L 399.30 325.90 L 401.30 328.20 L 404.30 330.50 L 408.40 332.90 L 413.90 335.30 L 416.50 337.00 L 419.10 339.40 L 421.70 342.70 L 424.30 347.00 L 428.60 355.60 L 431.00 358.80 L 434.30 362.20 L 438.70 365.80 L 444.30 369.50 L 451.30 373.50 L 460.00 377.60 Z" fill="#ffffff" fill-rule="nonzero" node-id="205" stroke="none" target-height="88.30002" target-width="75.100006" target-x="384.9" target-y="289.3"></path></mask><mask height="78" id="mask5" maskUnits="userSpaceOnUse" node-id="44" width="39" x="471" y="274"><path d="M 472.90 351.70 L 471.70 347.30 L 471.30 343.70 L 471.40 340.70 L 472.10 338.10 L 473.20 336.00 L 476.00 332.10 L 476.80 329.70 L 477.20 326.90 L 477.20 323.70 L 476.30 317.60 L 476.30 315.60 L 477.40 311.60 L 478.70 309.50 L 484.90 301.90 L 485.30 298.70 L 486.10 296.10 L 487.10 294.00 L 488.50 292.30 L 490.10 290.90 L 494.20 288.60 L 496.50 286.60 L 498.80 283.80 L 501.20 279.80 L 503.60 274.50 L 506.20 279.20 L 507.90 283.40 L 509.00 287.10 L 509.40 290.40 L 509.20 293.40 L 508.60 296.10 L 507.50 298.70 L 505.80 301.00 L 503.60 303.20 L 502.70 307.60 L 501.50 311.30 L 500.00 314.50 L 498.20 317.10 L 494.30 321.50 L 493.30 323.20 L 492.50 326.50 L 492.40 331.50 L 492.00 333.40 L 491.20 335.10 L 489.40 337.50 L 486.10 340.90 L 480.80 345.50 L 472.90 351.70 Z" fill="#ffffff" fill-rule="nonzero" node-id="209" stroke="none" target-height="77.20001" target-width="38.100006" target-x="471.3" target-y="274.5"></path></mask><mask height="38" id="mask6" maskUnits="userSpaceOnUse" node-id="49" width="38" x="449" y="391"><path d="M 449.70 391.60 L 486.70 391.60 L 482.80 428.40 L 453.60 428.40 L 449.70 391.60 Z" fill="#ffffff" fill-rule="nonzero" node-id="213" stroke="none" target-height="36.799988" target-width="37" target-x="449.7" target-y="391.6"></path></mask><mask height="70" id="mask7" maskUnits="userSpaceOnUse" node-id="59" width="100" x="478" y="287"><path d="M 577.60 356.50 L 574.20 348.30 L 570.40 340.80 L 566.20 333.80 L 561.80 327.50 L 557.00 321.60 L 551.80 316.30 L 546.40 311.40 L 540.60 307.00 L 534.40 303.00 L 527.80 299.50 L 520.80 296.40 L 513.30 293.70 L 505.40 291.50 L 496.90 289.80 L 487.90 288.60 L 478.20 287.80 L 487.30 295.20 L 492.90 300.20 L 496.00 303.40 L 499.10 307.30 L 505.70 318.10 L 507.20 319.30 L 516.90 320.90 L 520.90 325.70 L 524.40 329.10 L 527.50 331.50 L 530.20 333.10 L 532.60 333.90 L 534.80 334.20 L 539.40 337.30 L 543.80 339.80 L 548.20 341.60 L 552.50 342.90 L 560.10 344.10 L 563.50 345.30 L 567.00 347.00 L 570.40 349.40 L 574.00 352.50 L 577.60 356.50 Z" fill="#ffffff" fill-rule="nonzero" node-id="217" stroke="none" target-height="68.70001" target-width="99.39996" target-x="478.2" target-y="287.8"></path></mask><mask height="106" id="mask8" maskUnits="userSpaceOnUse" node-id="66" width="33" x="591" y="243"><path d="M 600.00 348.80 L 604.20 345.50 L 607.70 342.00 L 610.70 338.40 L 613.10 334.60 L 615.10 330.70 L 616.50 326.50 L 619.10 314.60 L 621.90 306.90 L 622.40 303.40 L 622.30 301.20 L 619.90 286.20 L 619.50 279.20 L 619.70 275.50 L 620.50 271.60 L 622.80 263.90 L 623.20 261.20 L 623.10 258.80 L 622.50 255.40 L 621.40 252.60 L 617.90 245.60 L 617.50 243.90 L 615.20 245.80 L 613.10 248.10 L 611.20 250.90 L 609.50 254.20 L 608.10 258.00 L 605.10 268.70 L 603.20 273.90 L 597.20 286.60 L 596.20 289.90 L 595.70 295.10 L 595.40 305.60 L 594.90 307.80 L 592.80 311.50 L 591.90 314.00 L 591.60 316.90 L 591.70 320.70 L 592.50 324.90 L 594.10 330.40 L 600.00 348.80 Z" fill="#ffffff" fill-rule="nonzero" node-id="221" stroke="none" target-height="104.899994" target-width="31.600037" target-x="591.6" target-y="243.9"></path></mask><mask height="89" id="mask9" maskUnits="userSpaceOnUse" node-id="71" width="76" x="602" y="289"><path d="M 602.60 377.60 L 605.70 366.90 L 609.10 357.00 L 613.00 348.00 L 617.10 339.70 L 621.60 332.10 L 626.40 325.10 L 631.60 318.80 L 637.10 313.00 L 642.90 307.80 L 649.00 303.10 L 655.50 298.90 L 662.50 295.20 L 669.80 292.00 L 677.60 289.30 L 677.70 292.60 L 677.30 295.70 L 676.50 298.80 L 675.20 301.90 L 673.30 304.90 L 670.90 307.90 L 667.70 310.90 L 663.80 314.00 L 665.00 316.70 L 665.40 319.10 L 665.30 321.50 L 664.60 323.70 L 663.30 325.90 L 661.20 328.20 L 658.20 330.50 L 654.10 332.90 L 648.70 335.30 L 646.10 337.00 L 643.50 339.40 L 640.90 342.70 L 638.20 347.00 L 634.00 355.60 L 631.50 358.80 L 628.20 362.20 L 623.90 365.80 L 618.30 369.50 L 611.30 373.50 L 602.60 377.60 Z" fill="#ffffff" fill-rule="nonzero" node-id="225" stroke="none" target-height="88.30002" target-width="75.10004" target-x="602.6" target-y="289.3"></path></mask><mask height="78" id="mask10" maskUnits="userSpaceOnUse" node-id="79" width="39" x="553" y="274"><path d="M 589.70 351.70 L 590.80 347.30 L 591.30 343.70 L 591.10 340.70 L 590.50 338.10 L 589.40 336.00 L 586.60 332.10 L 585.70 329.70 L 585.30 326.90 L 585.40 323.70 L 586.30 317.60 L 586.30 315.60 L 585.10 311.60 L 583.90 309.50 L 577.60 301.90 L 577.20 298.70 L 576.50 296.10 L 575.40 294.00 L 574.10 292.30 L 572.50 290.90 L 568.30 288.60 L 566.10 286.60 L 563.80 283.80 L 561.40 279.80 L 559.00 274.50 L 556.30 279.20 L 554.60 283.40 L 553.60 287.10 L 553.20 290.40 L 553.30 293.40 L 554.00 296.10 L 555.10 298.70 L 556.70 301.00 L 559.00 303.20 L 559.80 307.60 L 561.00 311.30 L 562.50 314.50 L 564.30 317.10 L 568.20 321.50 L 569.30 323.20 L 570.00 326.50 L 570.10 331.50 L 570.50 333.40 L 571.40 335.10 L 573.20 337.50 L 576.50 340.90 L 581.80 345.50 L 589.70 351.70 Z" fill="#ffffff" fill-rule="nonzero" node-id="229" stroke="none" target-height="77.20001" target-width="38.099976" target-x="553.2" target-y="274.5"></path></mask><mask height="38" id="mask11" maskUnits="userSpaceOnUse" node-id="84" width="38" x="575" y="391"><path d="M 612.90 391.60 L 575.80 391.60 L 579.70 428.40 L 609.00 428.40 L 612.90 391.60 Z" fill="#ffffff" fill-rule="nonzero" node-id="233" stroke="none" target-height="36.799988" target-width="37.100037" target-x="575.8" target-y="391.6"></path></mask><mask height="146" id="mask12" maskUnits="userSpaceOnUse" node-id="90" width="116" x="473" y="180"><path d="M 589.00 180.50 L 473.50 180.50 L 473.50 325.50 L 589.00 325.50 L 589.00 180.50 Z" fill="#ffffff" fill-rule="nonzero" node-id="237" stroke="none" target-height="145" target-width="115.5" target-x="473.5" target-y="180.5"></path></mask><mask height="104" id="mask13" maskUnits="userSpaceOnUse" node-id="96" width="116" x="473" y="325"><path d="M 589.00 325.50 L 473.50 325.50 L 473.50 428.30 L 589.00 428.30 L 589.00 325.50 Z" fill="#ffffff" fill-rule="nonzero" node-id="241" stroke="none" target-height="102.79999" target-width="115.5" target-x="473.5" target-y="325.5"></path></mask><mask height="44" id="mask14" maskUnits="userSpaceOnUse" node-id="136" width="63" x="309" y="640"><path d="M 311.50 640.90 L 309.50 683.70 L 319.60 683.70 L 319.60 676.80 L 331.90 683.70 L 371.70 683.70 L 371.80 681.60 L 371.50 679.80 L 370.70 678.20 L 369.30 676.70 L 367.30 675.40 L 352.30 668.70 L 330.40 659.60 L 332.40 640.90 L 311.50 640.90 Z" fill="#ffffff" fill-rule="nonzero" node-id="245" stroke="none" target-height="42.799988" target-width="62.299988" target-x="309.5" target-y="640.9"></path></mask><mask height="44" id="mask15" maskUnits="userSpaceOnUse" node-id="141" width="63" x="255" y="640"><path d="M 255.50 640.90 L 255.50 683.70 L 265.60 683.70 L 265.60 676.80 L 277.90 683.70 L 317.70 683.70 L 317.80 681.60 L 317.50 679.80 L 316.70 678.20 L 315.30 676.70 L 313.30 675.40 L 298.30 668.70 L 276.40 659.60 L 276.40 640.90 L 255.50 640.90 Z" fill="#ffffff" fill-rule="nonzero" node-id="249" stroke="none" target-height="42.799988" target-width="62.299988" target-x="255.5" target-y="640.9"></path></mask><mask height="71" id="mask16" maskUnits="userSpaceOnUse" node-id="162" width="41" x="274" y="196"><path d="M 281.50 221.90 L 279.80 220.40 L 278.00 217.50 L 277.70 214.50 L 278.70 212.40 L 279.60 211.80 L 280.90 211.50 L 282.50 212.10 L 283.80 214.00 L 285.30 219.40 L 285.70 219.10 L 285.90 217.90 L 285.80 214.80 L 287.10 214.10 L 288.10 213.00 L 288.90 211.30 L 289.40 208.70 L 294.20 208.30 L 298.10 207.50 L 301.30 206.30 L 303.70 204.90 L 305.70 203.20 L 307.10 201.30 L 308.20 199.10 L 308.80 196.60 L 310.90 198.80 L 313.60 200.60 L 314.30 218.00 L 314.10 224.00 L 312.80 231.80 L 311.20 235.90 L 309.20 238.20 L 306.20 239.30 L 303.40 239.40 L 299.20 239.00 L 298.40 243.20 L 298.20 246.40 L 298.40 248.80 L 299.00 250.60 L 302.50 255.10 L 303.60 257.20 L 304.30 260.80 L 303.40 263.50 L 302.40 264.50 L 300.70 265.50 L 298.20 266.40 L 296.00 266.80 L 293.60 266.60 L 291.10 265.90 L 288.40 264.60 L 285.40 262.50 L 282.20 259.60 L 278.60 255.50 L 274.60 250.30 L 281.50 221.90 Z" fill="#ffffff" fill-rule="nonzero" node-id="253" stroke="none" target-height="70.19998" target-width="39.69998" target-x="274.6" target-y="196.6"></path></mask></defs><path d="M 297.80 800.00 L -502.20 800.00 L -502.20 1600.00 L 297.80 1600.00 L 297.80 800.00 Z" fill="#ffffff" fill-rule="nonzero" hidden="true" node-id="257" stroke="none" target-height="800" target-width="800" target-x="-502.2" target-y="800" visibility="hidden"></path><path d="M 514.90 361.10 L 515.20 366.90 L 515.90 372.50 L 517.10 377.80 L 518.80 383.00 L 523.30 392.90 L 529.20 402.30 L 538.70 414.30 L 544.20 420.10 L 552.80 428.70 L 580.60 454.60 L 589.70 463.60 L 598.20 473.00 L 603.50 479.50 L 608.40 486.30 L 612.90 493.40 L 615.90 498.90 L 618.50 504.60 L 620.80 510.50 L 622.80 516.70 L 624.30 522.90 L 625.30 529.50 L 625.90 536.40 L 626.00 543.70 L 625.50 550.90 L 624.50 558.60 L 622.90 566.70 L 620.60 575.50 L 618.50 581.60 L 615.90 587.70 L 612.80 593.60 L 609.30 599.50 L 605.20 605.30 L 599.60 612.10 L 593.40 618.80 L 586.50 625.30 L 578.80 631.60 L 570.90 637.50 L 562.30 643.10 L 553.20 648.50 L 543.30 653.60 L 533.40 658.30 L 523.00 662.60 L 512.10 666.70 L 500.60 670.40 L 489.10 673.70 L 477.30 676.50 L 465.10 679.00 L 452.50 681.10 L 439.90 682.80 L 427.00 684.00 L 414.00 684.70 L 400.70 685.00 L 387.40 684.80 L 374.10 684.10 L 360.70 682.90 L 347.10 681.10 L 333.70 678.80 L 320.30 676.00 L 306.90 672.60 L 293.60 668.60 L 280.50 664.10 L 267.50 658.90 L 254.60 653.20 L 241.90 646.70 L 232.00 641.20 L 222.30 635.20 L 212.70 628.80 L 203.30 621.90 L 194.00 614.50 L 185.10 606.90 L 176.40 598.70 L 167.90 590.10 L 159.60 580.90 L 151.60 571.20 L 145.20 562.60 L 139.40 554.00 L 134.30 545.30 L 129.70 536.50 L 125.80 527.60 L 122.30 518.50 L 119.30 509.30 L 116.90 500.00 L 115.00 490.70 L 113.50 481.20 L 112.60 471.70 L 112.10 462.10 L 112.00 452.50 L 112.40 442.90 L 113.30 433.10 L 114.90 421.00 L 117.10 408.90 L 119.90 396.80 L 123.40 384.60 L 127.40 372.60 L 131.90 360.60 L 136.90 348.70 L 142.40 336.90 L 148.40 325.20 L 154.70 313.80 L 161.50 302.40 L 168.70 291.20 L 176.30 280.30 L 192.40 259.10 L 209.70 239.00 L 227.80 220.10 L 246.80 202.60 L 256.60 194.40 L 276.20 179.30 L 286.30 172.30 L 296.40 165.80 L 306.40 159.90 L 316.30 154.50 L 326.50 149.50 L 336.50 145.00 L 346.40 141.20 L 356.00 138.00 L 365.90 135.30 L 375.50 133.30 L 384.70 131.90 L 393.70 131.10 L 401.00 131.00 L 408.10 131.30 L 414.90 132.10 L 421.50 133.40 L 427.90 135.10 L 439.50 138.90 L 449.80 142.90 L 459.10 147.10 L 467.30 151.40 L 475.40 156.30 L 482.70 161.30 L 489.00 166.50 L 494.60 171.70 L 499.90 177.40 L 504.50 183.20 L 508.50 189.10 L 511.90 195.10 L 514.90 201.40 L 517.40 207.90 L 519.40 214.40 L 521.10 221.10 L 522.70 230.10 L 523.70 239.30 L 524.10 248.70 L 523.80 267.60 L 523.10 277.20 L 521.60 291.60 L 516.50 334.20 L 515.60 343.50 L 514.90 361.10 Z" fill="#ffe1a7" fill-rule="nonzero" node-id="259" stroke="none" target-height="554" target-width="514" target-x="112" target-y="131"></path><path d="M 150.90 490.60 L 150.90 386.00 L 151.10 381.90 L 151.90 378.00 L 153.20 374.30 L 155.00 370.80 L 157.10 367.70 L 159.60 364.80 L 162.50 362.20 L 165.70 360.10 L 169.20 358.40 L 172.90 357.10 L 176.70 356.30 L 180.90 356.00 L 209.40 356.00 L 213.50 356.30 L 217.40 357.10 L 221.10 358.40 L 224.60 360.10 L 227.80 362.20 L 230.60 364.80 L 233.20 367.70 L 235.30 370.80 L 237.10 374.30 L 238.40 378.00 L 239.10 381.90 L 239.40 386.00 L 239.40 490.60" fill="none" node-id="261" stroke="#fff9ea" stroke-linecap="butt" stroke-width="6" target-height="134.6" target-width="88.5" target-x="150.9" target-y="356"></path><path d="M 161.10 656.20 L 160.90 654.30 L 160.10 652.50 L 159.00 651.10 L 157.50 649.90 L 155.80 649.20 L 153.90 648.90 L 151.90 649.20 L 150.20 649.90 L 148.80 651.10 L 147.60 652.50 L 146.90 654.30 L 146.60 656.20 L 146.60 675.80 L 146.90 677.70 L 147.60 679.40 L 148.80 680.90 L 150.20 682.00 L 151.90 682.70 L 153.90 683.00 L 155.80 682.70 L 157.50 682.00 L 159.00 680.90 L 160.10 679.40 L 160.90 677.70 L 161.10 675.80 L 161.10 656.20 Z" fill="#000000" fill-rule="nonzero" node-id="263" stroke="none" target-height="34.099976" target-width="14.5" target-x="146.6" target-y="648.9"></path><path d="M 243.90 656.20 L 243.70 654.30 L 242.90 652.50 L 241.80 651.10 L 240.30 649.90 L 238.60 649.20 L 236.70 648.90 L 234.70 649.20 L 233.00 649.90 L 231.60 651.10 L 230.40 652.50 L 229.70 654.30 L 229.40 656.20 L 229.40 675.80 L 229.70 677.70 L 230.40 679.40 L 231.60 680.90 L 233.00 682.00 L 234.70 682.70 L 236.70 683.00 L 238.60 682.70 L 240.30 682.00 L 241.80 680.90 L 242.90 679.40 L 243.70 677.70 L 243.90 675.80 L 243.90 656.20 Z" fill="#000000" fill-rule="nonzero" node-id="265" stroke="none" target-height="34.099976" target-width="14.5" target-x="229.4" target-y="648.9"></path><g node-id="578"><path d="M 234.80 474.50 L 156.80 474.50 L 152.80 474.80 L 149.10 475.50 L 145.60 476.80 L 142.20 478.40 L 139.20 480.50 L 136.40 482.90 L 134.00 485.70 L 131.90 488.70 L 130.30 492.10 L 129.00 495.60 L 128.30 499.30 L 128.00 503.30 L 128.00 639.80 L 128.30 643.70 L 129.00 647.40 L 130.30 651.00 L 131.90 654.30 L 134.00 657.40 L 136.40 660.10 L 139.20 662.60 L 142.20 664.60 L 145.60 666.30 L 149.10 667.50 L 152.80 668.30 L 156.80 668.60 L 234.80 668.60 L 238.80 668.30 L 242.50 667.50 L 246.00 666.30 L 249.40 664.60 L 252.40 662.60 L 255.20 660.10 L 257.60 657.40 L 259.70 654.30 L 261.30 651.00 L 262.60 647.40 L 263.30 643.70 L 263.60 639.80 L 263.60 503.30 L 263.30 499.30 L 262.60 495.60 L 261.30 492.10 L 259.70 488.70 L 257.60 485.70 L 255.20 482.90 L 252.40 480.50 L 249.40 478.40 L 246.00 476.80 L 242.50 475.50 L 238.80 474.80 L 234.80 474.50 Z" fill="#191305" fill-rule="nonzero" group-id="1" node-id="269" stroke="none" target-height="194.09998" target-width="135.6" target-x="128" target-y="474.5"></path><path d="M 238.90 478.60 L 160.90 478.60 L 157.00 478.90 L 153.30 479.70 L 149.70 480.90 L 146.40 482.60 L 143.30 484.60 L 140.60 487.10 L 138.10 489.80 L 136.10 492.90 L 134.40 496.20 L 133.20 499.80 L 132.40 503.50 L 132.10 507.40 L 132.10 643.90 L 132.40 647.80 L 133.20 651.60 L 134.40 655.10 L 136.10 658.40 L 138.10 661.50 L 140.60 664.30 L 143.30 666.70 L 146.40 668.70 L 149.70 670.40 L 153.30 671.70 L 157.00 672.40 L 160.90 672.70 L 238.90 672.70 L 242.90 672.40 L 246.60 671.70 L 250.20 670.40 L 253.50 668.70 L 256.50 666.70 L 259.30 664.30 L 261.70 661.50 L 263.80 658.40 L 265.50 655.10 L 266.70 651.60 L 267.50 647.80 L 267.70 643.90 L 267.70 507.40 L 267.50 503.50 L 266.70 499.80 L 265.50 496.20 L 263.80 492.90 L 261.70 489.80 L 259.30 487.10 L 256.50 484.60 L 253.50 482.60 L 250.20 480.90 L 246.60 479.70 L 242.90 478.90 L 238.90 478.60 Z" fill="#4c390e" fill-rule="nonzero" group-id="1" node-id="271" stroke="none" target-height="194.1" target-width="135.6" target-x="132.1" target-y="478.6"></path><path d="M 218.90 508.60 L 172.70 508.60 L 169.40 508.80 L 166.30 509.40 L 163.40 510.50 L 158.00 513.60 L 153.70 517.90 L 150.60 523.20 L 149.60 526.20 L 148.90 529.30 L 148.70 532.60 L 148.70 619.80 L 148.90 623.10 L 149.60 626.20 L 150.60 629.10 L 152.00 631.90 L 155.70 636.80 L 160.60 640.50 L 163.40 641.90 L 166.30 642.90 L 169.40 643.60 L 172.70 643.80 L 218.90 643.80 L 222.20 643.60 L 225.30 642.90 L 228.20 641.90 L 233.60 638.80 L 237.90 634.40 L 241.00 629.10 L 242.00 626.20 L 242.70 623.10 L 242.90 619.80 L 242.90 532.60 L 242.70 529.30 L 242.00 526.20 L 241.00 523.20 L 239.60 520.40 L 237.90 517.90 L 233.60 513.60 L 228.20 510.50 L 225.30 509.40 L 222.20 508.80 L 218.90 508.60 Z" fill="#7f6018" fill-rule="nonzero" group-id="1" node-id="273" stroke="none" target-height="135.19998" target-width="94.2" target-x="148.7" target-y="508.6"></path><path d="M 176.80 512.70 L 223.00 512.70 L 226.30 512.90 L 229.40 513.60 L 232.40 514.60 L 237.70 517.70 L 242.00 522.00 L 245.20 527.40 L 246.20 530.30 L 246.80 533.40 L 247.00 536.70 L 247.00 618.80 L 246.80 622.10 L 246.20 625.20 L 245.20 628.10 L 243.80 630.90 L 240.00 635.70 L 235.20 639.50 L 232.40 640.90 L 229.40 641.90 L 226.30 642.50 L 223.00 642.80 L 176.80 642.80 L 173.50 642.50 L 170.40 641.90 L 167.50 640.90 L 162.20 637.80 L 157.80 633.40 L 154.70 628.10 L 153.70 625.20 L 153.10 622.10 L 152.80 618.80 L 152.80 536.70 L 153.10 533.40 L 153.70 530.30 L 154.70 527.40 L 156.10 524.60 L 157.80 522.00 L 162.20 517.70 L 167.50 514.60 L 170.40 513.60 L 173.50 512.90 L 176.80 512.70 Z" fill="#98731d" fill-rule="nonzero" group-id="1" node-id="275" stroke="none" target-height="130.09998" target-width="94.2" target-x="152.8" target-y="512.7"></path><path d="M 213.30 537.50 L 177.00 537.70 L 175.90 538.10 L 174.20 539.80 L 173.50 542.30 L 173.70 548.40 L 175.00 550.50 L 177.00 551.70 L 214.60 551.70 L 216.60 550.50 L 217.90 548.40 L 218.10 542.30 L 217.90 541.00 L 216.60 538.90 L 214.60 537.70 L 213.30 537.50 Z" fill="#ffffff" fill-rule="nonzero" group-id="1" node-id="277" stroke="none" target-height="14.200012" target-width="44.600006" target-x="173.5" target-y="537.5"></path></g><path d="M 168.30 357.50 L 222.00 357.50" fill="none" node-id="280" stroke="#9dc9f8" stroke-linecap="round" stroke-width="13.2" target-height="0" target-width="53.699997" target-x="168.3" target-y="357.5"></path><g node-id="579"><path d="M 534.00 432.90 L 542.50 432.70 L 550.70 432.00 L 558.90 430.90 L 566.80 429.40 L 574.60 427.50 L 582.40 425.10 L 589.90 422.40 L 597.20 419.30 L 604.30 415.80 L 611.20 412.00 L 619.50 406.80 L 627.40 401.00 L 635.00 394.80 L 642.10 388.10 L 648.80 381.00 L 655.00 373.40 L 660.80 365.50 L 666.00 357.20 L 669.80 350.30 L 673.30 343.20 L 676.40 335.90 L 679.10 328.40 L 681.50 320.60 L 683.40 312.80 L 684.90 304.90 L 686.00 296.70 L 686.70 288.50 L 686.90 280.00 L 686.70 271.50 L 686.00 263.20 L 684.90 255.10 L 683.40 247.10 L 681.50 239.30 L 679.10 231.60 L 676.40 224.00 L 673.30 216.80 L 669.80 209.70 L 666.00 202.80 L 660.80 194.40 L 655.00 186.50 L 648.80 178.90 L 642.10 171.80 L 635.00 165.10 L 627.40 158.90 L 619.50 153.10 L 611.20 147.90 L 604.30 144.10 L 597.20 140.60 L 589.90 137.50 L 582.40 134.80 L 574.60 132.50 L 566.80 130.50 L 558.90 129.00 L 550.70 127.90 L 542.50 127.20 L 534.00 127.00 L 525.50 127.20 L 517.20 127.90 L 509.10 129.00 L 501.10 130.50 L 493.30 132.50 L 485.60 134.80 L 478.00 137.50 L 470.80 140.60 L 463.70 144.10 L 456.80 147.90 L 448.40 153.10 L 440.50 158.90 L 432.90 165.10 L 425.80 171.80 L 419.10 178.90 L 412.90 186.50 L 407.10 194.40 L 401.90 202.80 L 398.10 209.70 L 394.60 216.80 L 391.50 224.00 L 388.80 231.60 L 386.50 239.30 L 384.50 247.10 L 383.00 255.10 L 381.90 263.20 L 381.20 271.50 L 381.00 280.00 L 381.20 288.50 L 381.90 296.70 L 383.00 304.90 L 384.50 312.80 L 386.50 320.60 L 388.80 328.40 L 391.50 335.90 L 394.60 343.20 L 398.10 350.30 L 401.90 357.20 L 407.10 365.50 L 412.90 373.40 L 419.10 381.00 L 425.80 388.10 L 432.90 394.80 L 440.50 401.00 L 448.40 406.80 L 456.80 412.00 L 463.70 415.80 L 470.80 419.30 L 478.00 422.40 L 485.60 425.10 L 493.30 427.50 L 501.10 429.40 L 509.10 430.90 L 517.20 432.00 L 525.50 432.70 L 534.00 432.90 Z" fill="#febf30" fill-rule="nonzero" group-id="2" node-id="284" stroke="none" target-height="305.9" target-width="305.90002" target-x="381" target-y="127"></path><path d="M 469.70 401.10 L 471.10 393.80 L 473.00 386.20 L 475.50 378.40 L 478.60 370.10 L 482.40 361.60 L 486.90 352.60 L 492.10 343.20 L 498.10 333.40" fill="none" group-id="2" node-id="286" stroke="#aac9f1" stroke-linecap="butt" stroke-width="0.704" target-height="67.70001" target-width="28.399994" target-x="469.7" target-y="333.4"></path><path d="M 467.20 401.10 L 467.60 388.40 L 468.50 377.10 L 469.70 367.30 L 471.30 358.60 L 473.20 351.10 L 475.30 344.60 L 477.60 339.00 L 480.20 334.20" fill="none" group-id="2" node-id="288" stroke="#aac9f1" stroke-linecap="butt" stroke-width="0.704" target-height="66.899994" target-width="13" target-x="467.2" target-y="334.2"></path><path d="M 467.20 399.80 L 465.60 377.20 L 463.80 359.40 L 461.90 345.70 L 460.00 335.50" fill="none" group-id="2" node-id="290" stroke="#aac9f1" stroke-linecap="butt" stroke-width="0.704" target-height="64.29999" target-width="7.200012" target-x="460" target-y="335.5"></path><path d="M 465.90 401.10 L 466.30 398.20 L 466.30 394.90 L 465.60 391.10 L 464.20 386.80 L 462.10 381.90 L 458.90 376.20 L 454.60 369.70 L 449.00 362.20 L 441.80 353.70" fill="none" group-id="2" node-id="292" stroke="#aac9f1" stroke-linecap="butt" stroke-width="0.704" target-height="47.399994" target-width="24.5" target-x="441.8" target-y="353.7"></path><g node-id="583"><path d="M 484.90 356.50 L 488.40 348.30 L 492.20 340.80 L 496.30 333.80 L 500.80 327.50 L 505.60 321.60 L 510.70 316.30 L 516.20 311.40 L 522.00 307.00 L 528.20 303.00 L 534.70 299.50 L 541.80 296.40 L 549.20 293.70 L 557.20 291.50 L 565.60 289.80 L 574.70 288.60 L 584.30 287.80 L 575.20 295.20 L 569.60 300.20 L 566.50 303.40 L 563.50 307.30 L 556.80 318.10 L 555.40 319.30 L 545.70 320.90 L 541.70 325.70 L 538.10 329.10 L 535.10 331.50 L 532.40 333.10 L 529.90 333.90 L 527.80 334.20 L 523.20 337.30 L 518.70 339.80 L 514.40 341.60 L 510.10 342.90 L 502.40 344.10 L 499.00 345.30 L 495.60 347.00 L 492.10 349.40 L 488.60 352.50 L 484.90 356.50 Z" fill="#e4f0ff" fill-rule="nonzero" group-id="2,6" node-id="296" stroke="none" target-height="68.70001" target-width="99.399994" target-x="484.9" target-y="287.8"></path><path d="M 492.10 340.50 L 498.50 336.50 L 501.60 335.00 L 508.40 333.00 L 515.30 332.40 L 519.00 332.50 L 527.80 334.20" fill="none" group-id="2,6" node-id="298" stroke="#f1f7ff" stroke-linecap="butt" stroke-width="0.704" target-height="8.100006" target-width="35.69998" target-x="492.1" target-y="332.4"></path><path d="M 503.60 320.90 L 511.00 318.80 L 517.80 317.50 L 524.00 316.80 L 529.80 316.80 L 535.20 317.30 L 540.30 318.40 L 545.00 320.00 L 549.40 322.10" fill="none" group-id="2,6" node-id="300" stroke="#f1f7ff" stroke-linecap="butt" stroke-width="0.704" target-height="5.3000183" target-width="45.80002" target-x="503.6" target-y="316.8"></path><path d="M 517.20 307.70 L 524.20 304.30 L 529.70 302.00 L 535.90 299.90 L 543.50 297.90 L 548.70 296.90 L 560.50 295.70 L 566.60 295.70 L 573.00 296.20 L 579.60 297.30" fill="none" group-id="2,6" node-id="302" stroke="#f1f7ff" stroke-linecap="butt" stroke-width="0.704" target-height="12" target-width="62.399963" target-x="517.2" target-y="295.7"></path></g><g node-id="584"><path d="M 462.60 348.80 L 458.40 345.50 L 454.80 342.00 L 451.90 338.40 L 449.40 334.60 L 447.50 330.70 L 446.00 326.50 L 443.40 314.60 L 440.70 306.90 L 440.20 303.40 L 440.20 301.20 L 442.60 286.20 L 443.10 279.20 L 442.80 275.50 L 442.00 271.60 L 439.70 263.90 L 439.40 261.20 L 439.40 258.80 L 440.10 255.40 L 441.10 252.60 L 444.70 245.60 L 445.00 243.90 L 447.40 245.80 L 449.50 248.10 L 451.40 250.90 L 453.00 254.20 L 454.50 258.00 L 457.40 268.70 L 459.40 273.90 L 465.30 286.60 L 466.40 289.90 L 466.90 295.10 L 467.10 305.60 L 467.60 307.80 L 469.70 311.50 L 470.60 314.00 L 471.00 316.90 L 470.80 320.70 L 470.10 324.90 L 468.50 330.40 L 462.60 348.80 Z" fill="#ffffff" fill-rule="nonzero" group-id="2,7" node-id="307" stroke="none" target-height="104.899994" target-width="31.600006" target-x="439.4" target-y="243.9"></path><path d="M 445.00 243.90 L 447.70 256.00 L 449.40 265.00 L 450.20 271.50 L 450.50 285.20 L 451.40 294.70 L 452.40 300.00 L 456.50 316.00 L 459.30 329.70 L 462.60 348.80" fill="none" group-id="2,7" node-id="309" stroke="#b6d6ff" stroke-linecap="butt" stroke-width="0.704" target-height="104.899994" target-width="17.600006" target-x="445" target-y="243.9"></path></g><g node-id="585"><path d="M 460.00 377.60 L 456.90 366.90 L 453.40 357.00 L 449.60 348.00 L 445.40 339.70 L 440.90 332.10 L 436.10 325.10 L 431.00 318.80 L 425.50 313.00 L 419.70 307.80 L 413.50 303.10 L 407.00 298.90 L 400.10 295.20 L 392.80 292.00 L 385.00 289.30 L 384.90 292.60 L 385.20 295.70 L 386.00 298.80 L 387.40 301.90 L 389.20 304.90 L 391.70 307.90 L 394.80 310.90 L 398.70 314.00 L 397.60 316.70 L 397.10 319.10 L 397.20 321.50 L 397.90 323.70 L 399.30 325.90 L 401.30 328.20 L 404.30 330.50 L 408.40 332.90 L 413.90 335.30 L 416.50 337.00 L 419.10 339.40 L 421.70 342.70 L 424.30 347.00 L 428.60 355.60 L 431.00 358.80 L 434.30 362.20 L 438.70 365.80 L 444.30 369.50 L 451.30 373.50 L 460.00 377.60 Z" fill="#b6d6ff" fill-rule="nonzero" group-id="2,8" node-id="314" stroke="none" target-height="88.30002" target-width="75.100006" target-x="384.9" target-y="289.3"></path><path d="M 456.40 364.30 L 432.90 362.60" fill="none" group-id="2,8" node-id="316" stroke="#c3ddff" stroke-linecap="butt" stroke-width="0.704" target-height="1.6999817" target-width="23.5" target-x="432.9" target-y="362.6"></path><path d="M 451.60 351.70 L 420.50 347.20" fill="none" group-id="2,8" node-id="318" stroke="#c3ddff" stroke-linecap="butt" stroke-width="0.704" target-height="4.5" target-width="31.100006" target-x="420.5" target-y="347.2"></path><path d="M 444.60 337.50 L 410.20 334.20" fill="none" group-id="2,8" node-id="320" stroke="#c3ddff" stroke-linecap="butt" stroke-width="0.704" target-height="3.2999878" target-width="34.399994" target-x="410.2" target-y="334.2"></path><path d="M 434.70 322.10 L 394.10 313.10" fill="none" group-id="2,8" node-id="322" stroke="#c3ddff" stroke-linecap="butt" stroke-width="0.704" target-height="9" target-width="40.600006" target-x="394.1" target-y="313.1"></path></g><g node-id="586"><path d="M 472.90 351.70 L 471.70 347.30 L 471.30 343.70 L 471.40 340.70 L 472.10 338.10 L 473.20 336.00 L 476.00 332.10 L 476.80 329.70 L 477.20 326.90 L 477.20 323.70 L 476.30 317.60 L 476.30 315.60 L 477.40 311.60 L 478.70 309.50 L 484.90 301.90 L 485.30 298.70 L 486.10 296.10 L 487.10 294.00 L 488.50 292.30 L 490.10 290.90 L 494.20 288.60 L 496.50 286.60 L 498.80 283.80 L 501.20 279.80 L 503.60 274.50 L 506.20 279.20 L 507.90 283.40 L 509.00 287.10 L 509.40 290.40 L 509.20 293.40 L 508.60 296.10 L 507.50 298.70 L 505.80 301.00 L 503.60 303.20 L 502.70 307.60 L 501.50 311.30 L 500.00 314.50 L 498.20 317.10 L 494.30 321.50 L 493.30 323.20 L 492.50 326.50 L 492.40 331.50 L 492.00 333.40 L 491.20 335.10 L 489.40 337.50 L 486.10 340.90 L 480.80 345.50 L 472.90 351.70 Z" fill="#b6d6ff" fill-rule="nonzero" group-id="2,9" node-id="327" stroke="none" target-height="77.20001" target-width="38.100006" target-x="471.3" target-y="274.5"></path><path d="M 503.60 274.50 L 500.90 285.60 L 499.20 291.20 L 496.60 298.00 L 490.30 311.40 L 475.70 344.50 L 472.90 351.70" fill="none" group-id="2,9" node-id="329" stroke="#ffffff" stroke-linecap="butt" stroke-width="0.704" target-height="77.20001" target-width="30.700012" target-x="472.9" target-y="274.5"></path></g><g node-id="587"><path d="M 449.70 391.60 L 486.70 391.60 L 482.80 428.40 L 453.60 428.40 L 449.70 391.60 Z" fill="#72a7de" fill-rule="nonzero" group-id="2,10" node-id="334" stroke="none" target-height="36.799988" target-width="37" target-x="449.7" target-y="391.6"></path><path d="M 486.70 396.90 L 448.60 408.00 L 448.60 395.70 L 486.70 396.90 Z" fill="#4580bd" fill-rule="evenodd" group-id="2,10" node-id="336" stroke="none" target-height="12.299988" target-width="38.100006" target-x="448.6" target-y="395.7"></path></g><path d="M 490.60 385.70 L 445.80 385.70 L 445.80 397.40 L 490.60 397.40 L 490.60 385.70 Z" fill="#4e94dd" fill-rule="nonzero" group-id="2" node-id="339" stroke="none" target-height="11.699982" target-width="44.80002" target-x="445.8" target-y="385.7"></path><path d="M 592.90 401.10 L 591.50 393.80 L 589.50 386.20 L 587.00 378.40 L 583.90 370.10 L 580.10 361.60 L 575.70 352.60 L 570.50 343.20 L 564.50 333.40" fill="none" group-id="2" node-id="341" stroke="#aac9f1" stroke-linecap="butt" stroke-width="0.704" target-height="67.70001" target-width="28.400024" target-x="564.5" target-y="333.4"></path><path d="M 595.40 401.10 L 594.90 388.40 L 594.10 377.10 L 592.80 367.30 L 591.30 358.60 L 589.40 351.10 L 587.30 344.60 L 584.90 339.00 L 582.40 334.20" fill="none" group-id="2" node-id="343" stroke="#aac9f1" stroke-linecap="butt" stroke-width="0.704" target-height="66.899994" target-width="13" target-x="582.4" target-y="334.2"></path><path d="M 595.40 399.80 L 596.90 377.20 L 598.70 359.40 L 600.60 345.70 L 602.60 335.50" fill="none" group-id="2" node-id="345" stroke="#aac9f1" stroke-linecap="butt" stroke-width="0.704" target-height="64.29999" target-width="7.199951" target-x="595.4" target-y="335.5"></path><path d="M 596.60 401.10 L 596.20 398.20 L 596.30 394.90 L 597.00 391.10 L 598.30 386.80 L 600.50 381.90 L 603.60 376.20 L 607.90 369.70 L 613.60 362.20 L 620.70 353.70" fill="none" group-id="2" node-id="347" stroke="#aac9f1" stroke-linecap="butt" stroke-width="0.704" target-height="47.399994" target-width="24.5" target-x="596.2" target-y="353.7"></path><g node-id="588"><path d="M 577.60 356.50 L 574.20 348.30 L 570.40 340.80 L 566.20 333.80 L 561.80 327.50 L 557.00 321.60 L 551.80 316.30 L 546.40 311.40 L 540.60 307.00 L 534.40 303.00 L 527.80 299.50 L 520.80 296.40 L 513.30 293.70 L 505.40 291.50 L 496.90 289.80 L 487.90 288.60 L 478.20 287.80 L 487.30 295.20 L 492.90 300.20 L 496.00 303.40 L 499.10 307.30 L 505.70 318.10 L 507.20 319.30 L 516.90 320.90 L 520.90 325.70 L 524.40 329.10 L 527.50 331.50 L 530.20 333.10 L 532.60 333.90 L 534.80 334.20 L 539.40 337.30 L 543.80 339.80 L 548.20 341.60 L 552.50 342.90 L 560.10 344.10 L 563.50 345.30 L 567.00 347.00 L 570.40 349.40 L 574.00 352.50 L 577.60 356.50 Z" fill="#e4f0ff" fill-rule="nonzero" group-id="2,11" node-id="351" stroke="none" target-height="68.70001" target-width="99.39996" target-x="478.2" target-y="287.8"></path><path d="M 570.50 340.50 L 564.00 336.50 L 560.90 335.00 L 554.10 333.00 L 547.20 332.40 L 543.50 332.50 L 534.80 334.20" fill="none" group-id="2,11" node-id="353" stroke="#f1f7ff" stroke-linecap="butt" stroke-width="0.704" target-height="8.100006" target-width="35.700012" target-x="534.8" target-y="332.4"></path><path d="M 559.00 320.90 L 551.60 318.80 L 544.80 317.50 L 538.50 316.80 L 532.70 316.80 L 527.30 317.30 L 522.30 318.40 L 517.60 320.00 L 513.10 322.10" fill="none" group-id="2,11" node-id="355" stroke="#f1f7ff" stroke-linecap="butt" stroke-width="0.704" target-height="5.3000183" target-width="45.900024" target-x="513.1" target-y="316.8"></path><path d="M 545.30 307.70 L 538.30 304.30 L 532.80 302.00 L 526.70 299.90 L 519.10 297.90 L 513.80 296.90 L 502.00 295.70 L 495.90 295.70 L 489.50 296.20 L 482.90 297.30" fill="none" group-id="2,11" node-id="357" stroke="#f1f7ff" stroke-linecap="butt" stroke-width="0.704" target-height="12" target-width="62.399994" target-x="482.9" target-y="295.7"></path></g><g node-id="589"><path d="M 600.00 348.80 L 604.20 345.50 L 607.70 342.00 L 610.70 338.40 L 613.10 334.60 L 615.10 330.70 L 616.50 326.50 L 619.10 314.60 L 621.90 306.90 L 622.40 303.40 L 622.30 301.20 L 619.90 286.20 L 619.50 279.20 L 619.70 275.50 L 620.50 271.60 L 622.80 263.90 L 623.20 261.20 L 623.10 258.80 L 622.50 255.40 L 621.40 252.60 L 617.90 245.60 L 617.50 243.90 L 615.20 245.80 L 613.10 248.10 L 611.20 250.90 L 609.50 254.20 L 608.10 258.00 L 605.10 268.70 L 603.20 273.90 L 597.20 286.60 L 596.20 289.90 L 595.70 295.10 L 595.40 305.60 L 594.90 307.80 L 592.80 311.50 L 591.90 314.00 L 591.60 316.90 L 591.70 320.70 L 592.50 324.90 L 594.10 330.40 L 600.00 348.80 Z" fill="#ffffff" fill-rule="nonzero" group-id="2,12" node-id="362" stroke="none" target-height="104.899994" target-width="31.600037" target-x="591.6" target-y="243.9"></path><path d="M 617.50 243.90 L 614.80 256.00 L 613.20 265.00 L 612.30 271.50 L 612.00 285.20 L 611.20 294.70 L 610.20 300.00 L 606.10 316.00 L 603.30 329.70 L 600.00 348.80" fill="none" group-id="2,12" node-id="364" stroke="#b6d6ff" stroke-linecap="butt" stroke-width="0.704" target-height="104.899994" target-width="17.5" target-x="600" target-y="243.9"></path></g><g node-id="590"><path d="M 602.60 377.60 L 605.70 366.90 L 609.10 357.00 L 613.00 348.00 L 617.10 339.70 L 621.60 332.10 L 626.40 325.10 L 631.60 318.80 L 637.10 313.00 L 642.90 307.80 L 649.00 303.10 L 655.50 298.90 L 662.50 295.20 L 669.80 292.00 L 677.60 289.30 L 677.70 292.60 L 677.30 295.70 L 676.50 298.80 L 675.20 301.90 L 673.30 304.90 L 670.90 307.90 L 667.70 310.90 L 663.80 314.00 L 665.00 316.70 L 665.40 319.10 L 665.30 321.50 L 664.60 323.70 L 663.30 325.90 L 661.20 328.20 L 658.20 330.50 L 654.10 332.90 L 648.70 335.30 L 646.10 337.00 L 643.50 339.40 L 640.90 342.70 L 638.20 347.00 L 634.00 355.60 L 631.50 358.80 L 628.20 362.20 L 623.90 365.80 L 618.30 369.50 L 611.30 373.50 L 602.60 377.60 Z" fill="#b6d6ff" fill-rule="nonzero" group-id="2,13" node-id="369" stroke="none" target-height="88.30002" target-width="75.10004" target-x="602.6" target-y="289.3"></path><path d="M 606.10 364.30 L 629.70 362.60" fill="none" group-id="2,13" node-id="371" stroke="#c3ddff" stroke-linecap="butt" stroke-width="0.704" target-height="1.6999817" target-width="23.600037" target-x="606.1" target-y="362.6"></path><path d="M 611.00 351.70 L 642.00 347.20" fill="none" group-id="2,13" node-id="373" stroke="#c3ddff" stroke-linecap="butt" stroke-width="0.704" target-height="4.5" target-width="31" target-x="611" target-y="347.2"></path><path d="M 617.90 337.50 L 652.40 334.20" fill="none" group-id="2,13" node-id="375" stroke="#c3ddff" stroke-linecap="butt" stroke-width="0.704" target-height="3.2999878" target-width="34.5" target-x="617.9" target-y="334.2"></path><path d="M 627.80 322.10 L 668.40 313.10" fill="none" group-id="2,13" node-id="377" stroke="#c3ddff" stroke-linecap="butt" stroke-width="0.704" target-height="9" target-width="40.600037" target-x="627.8" target-y="313.1"></path></g><g node-id="591"><path d="M 589.70 351.70 L 590.80 347.30 L 591.30 343.70 L 591.10 340.70 L 590.50 338.10 L 589.40 336.00 L 586.60 332.10 L 585.70 329.70 L 585.30 326.90 L 585.40 323.70 L 586.30 317.60 L 586.30 315.60 L 585.10 311.60 L 583.90 309.50 L 577.60 301.90 L 577.20 298.70 L 576.50 296.10 L 575.40 294.00 L 574.10 292.30 L 572.50 290.90 L 568.30 288.60 L 566.10 286.60 L 563.80 283.80 L 561.40 279.80 L 559.00 274.50 L 556.30 279.20 L 554.60 283.40 L 553.60 287.10 L 553.20 290.40 L 553.30 293.40 L 554.00 296.10 L 555.10 298.70 L 556.70 301.00 L 559.00 303.20 L 559.80 307.60 L 561.00 311.30 L 562.50 314.50 L 564.30 317.10 L 568.20 321.50 L 569.30 323.20 L 570.00 326.50 L 570.10 331.50 L 570.50 333.40 L 571.40 335.10 L 573.20 337.50 L 576.50 340.90 L 581.80 345.50 L 589.70 351.70 Z" fill="#b6d6ff" fill-rule="nonzero" group-id="2,14" node-id="382" stroke="none" target-height="77.20001" target-width="38.099976" target-x="553.2" target-y="274.5"></path><path d="M 559.00 274.50 L 561.60 285.60 L 563.30 291.20 L 565.90 298.00 L 572.20 311.40 L 586.90 344.50 L 589.70 351.70" fill="none" group-id="2,14" node-id="384" stroke="#ffffff" stroke-linecap="butt" stroke-width="0.704" target-height="77.20001" target-width="30.700012" target-x="559" target-y="274.5"></path></g><g node-id="592"><path d="M 612.90 391.60 L 575.80 391.60 L 579.70 428.40 L 609.00 428.40 L 612.90 391.60 Z" fill="#72a7de" fill-rule="nonzero" group-id="2,15" node-id="389" stroke="none" target-height="36.799988" target-width="37.100037" target-x="575.8" target-y="391.6"></path><path d="M 575.80 396.90 L 613.90 408.00 L 613.90 395.70 L 575.80 396.90 Z" fill="#4580bd" fill-rule="evenodd" group-id="2,15" node-id="391" stroke="none" target-height="12.299988" target-width="38.100037" target-x="575.8" target-y="395.7"></path></g><path d="M 571.90 385.70 L 616.80 385.70 L 616.80 397.40 L 571.90 397.40 L 571.90 385.70 Z" fill="#4e94dd" fill-rule="nonzero" group-id="2" node-id="394" stroke="none" target-height="11.699982" target-width="44.899963" target-x="571.9" target-y="385.7"></path><g node-id="593"><path d="M 589.00 180.50 L 473.50 180.50 L 473.50 325.50 L 589.00 325.50 L 589.00 180.50 Z" fill="#f3f9ff" fill-rule="nonzero" group-id="2,16" node-id="398" stroke="none" target-height="145" target-width="115.5" target-x="473.5" target-y="180.5"></path><g node-id="595"><path d="M 589.00 177.00 L 467.90 331.00 L 589.00 331.00 L 589.00 177.00 Z" fill="#eef6ff" fill-opacity="0.439407" fill-rule="evenodd" group-id="2,16,18" node-id="402" stroke="none" target-height="154" target-width="121.100006" target-x="467.9" target-y="177"></path></g></g><path d="M 510.90 190.10 L 511.40 190.70 L 511.30 200.00 L 510.40 200.00 L 510.30 199.50 L 510.30 195.50 L 504.40 195.50 L 504.40 199.50 L 503.80 200.10 L 503.40 200.00 L 503.20 199.50 L 503.40 190.20 L 504.20 190.20 L 504.40 190.70 L 504.40 194.50 L 510.30 194.50 L 510.30 190.70 L 510.90 190.10 Z M 518.00 200.20 L 515.60 199.50 L 514.70 198.80 L 513.70 196.60 L 513.50 195.10 L 514.10 192.40 L 514.70 191.40 L 516.70 190.20 L 519.40 190.20 L 520.40 190.60 L 521.30 191.40 L 522.40 193.60 L 522.40 196.60 L 521.30 198.80 L 519.30 200.00 L 518.00 200.20 Z M 518.00 199.20 L 519.50 198.90 L 520.50 198.10 L 521.10 196.90 L 521.40 195.10 L 521.10 193.30 L 520.50 192.10 L 519.50 191.30 L 518.00 191.00 L 516.60 191.30 L 515.60 192.10 L 514.90 193.30 L 514.70 195.10 L 514.90 196.90 L 515.60 198.10 L 516.60 198.90 L 518.00 199.20 Z M 527.00 200.10 L 526.60 200.00 L 526.40 199.50 L 526.40 191.10 L 523.40 191.10 L 523.00 191.00 L 523.00 190.30 L 531.00 190.30 L 531.00 191.00 L 530.60 191.10 L 527.60 191.10 L 527.60 199.50 L 527.00 200.10 Z M 533.00 200.10 L 532.40 199.50 L 532.40 190.70 L 533.00 190.10 L 538.30 190.10 L 538.80 190.60 L 538.30 191.10 L 533.60 191.10 L 533.60 194.50 L 538.00 194.50 L 538.50 195.00 L 538.00 195.50 L 533.60 195.50 L 533.60 199.10 L 538.30 199.10 L 538.70 199.20 L 538.70 199.90 L 533.00 200.10 Z M 541.20 200.10 L 540.60 199.50 L 540.60 190.70 L 541.20 190.10 L 541.80 190.70 L 541.80 199.10 L 546.30 199.10 L 546.90 199.60 L 546.30 200.10 L 541.20 200.10 Z" fill="#77aadf" fill-rule="nonzero" group-id="2" hidden="true" node-id="406" stroke="none" target-height="10.099991" target-width="43.700012" target-x="503.2" target-y="190.1" visibility="hidden"></path><g node-id="594"><path d="M 589.00 428.30 L 473.50 428.30 L 473.50 325.50 L 589.00 325.50 L 589.00 428.30 Z" fill="#f3f9ff" fill-rule="nonzero" group-id="2,17" node-id="410" stroke="none" target-height="102.79999" target-width="115.5" target-x="473.5" target-y="325.5"></path><g node-id="596"><path d="M 589.00 326.20 L 466.50 435.90 L 587.60 435.90 L 589.00 326.20 Z" fill="#eef6ff" fill-opacity="0.439407" fill-rule="evenodd" group-id="2,17,19" node-id="414" stroke="none" target-height="109.69998" target-width="122.5" target-x="466.5" target-y="326.2"></path></g></g><path d="M 594.60 173.50 L 467.90 173.50 L 467.90 180.50 L 594.60 180.50 L 594.60 173.50 Z" fill="#a6d1ff" fill-rule="nonzero" group-id="2" node-id="418" stroke="none" target-height="7" target-width="126.69998" target-x="467.9" target-y="173.5"></path><path d="M 597.40 169.20 L 465.10 169.20 L 465.10 173.50 L 597.40 173.50 L 597.40 169.20 Z" fill="#89c1fc" fill-rule="nonzero" group-id="2" node-id="420" stroke="none" target-height="4.300003" target-width="132.30002" target-x="465.1" target-y="169.2"></path><path d="M 589.00 205.80 L 473.50 205.80 L 473.50 208.70 L 589.00 208.70 L 589.00 205.80 Z" fill="#89c1fc" fill-rule="nonzero" group-id="2" node-id="422" stroke="none" target-height="2.899994" target-width="115.5" target-x="473.5" target-y="205.8"></path><path d="M 505.90 221.30 L 486.20 221.30 L 486.20 255.10 L 505.90 255.10 L 505.90 221.30 Z" fill="#a6d1ff" fill-rule="nonzero" group-id="2" node-id="424" stroke="none" target-height="33.800003" target-width="19.699982" target-x="486.2" target-y="221.3"></path><path d="M 486.70 238.20 L 505.90 238.20" fill="none" group-id="2" node-id="426" stroke="#f3f9ff" stroke-linecap="butt" stroke-width="1.408" target-height="0" target-width="19.199982" target-x="486.7" target-y="238.2"></path><path d="M 541.10 221.30 L 521.40 221.30 L 521.40 255.10 L 541.10 255.10 L 541.10 221.30 Z" fill="#a6d1ff" fill-rule="nonzero" group-id="2" node-id="428" stroke="none" target-height="33.800003" target-width="19.699951" target-x="521.4" target-y="221.3"></path><path d="M 521.90 238.20 L 541.10 238.20" fill="none" group-id="2" node-id="430" stroke="#f3f9ff" stroke-linecap="butt" stroke-width="1.408" target-height="0" target-width="19.199951" target-x="521.9" target-y="238.2"></path><path d="M 576.30 221.30 L 556.60 221.30 L 556.60 255.10 L 576.30 255.10 L 576.30 221.30 Z" fill="#a6d1ff" fill-rule="nonzero" group-id="2" node-id="432" stroke="none" target-height="33.800003" target-width="19.700012" target-x="556.6" target-y="221.3"></path><path d="M 557.10 238.20 L 576.30 238.20" fill="none" group-id="2" node-id="434" stroke="#f3f9ff" stroke-linecap="butt" stroke-width="1.408" target-height="0" target-width="19.200012" target-x="557.1" target-y="238.2"></path><path d="M 505.90 274.80 L 486.20 274.80 L 486.20 308.60 L 505.90 308.60 L 505.90 274.80 Z" fill="#a6d1ff" fill-rule="nonzero" group-id="2" node-id="436" stroke="none" target-height="33.80002" target-width="19.699982" target-x="486.2" target-y="274.8"></path><path d="M 486.70 291.70 L 505.90 291.70" fill="none" group-id="2" node-id="438" stroke="#f3f9ff" stroke-linecap="butt" stroke-width="1.408" target-height="0" target-width="19.199982" target-x="486.7" target-y="291.7"></path><path d="M 541.10 274.80 L 521.40 274.80 L 521.40 308.60 L 541.10 308.60 L 541.10 274.80 Z" fill="#a6d1ff" fill-rule="nonzero" group-id="2" node-id="440" stroke="none" target-height="33.80002" target-width="19.699951" target-x="521.4" target-y="274.8"></path><path d="M 521.90 291.70 L 541.10 291.70" fill="none" group-id="2" node-id="442" stroke="#f3f9ff" stroke-linecap="butt" stroke-width="1.408" target-height="0" target-width="19.199951" target-x="521.9" target-y="291.7"></path><path d="M 576.30 274.80 L 556.60 274.80 L 556.60 308.60 L 576.30 308.60 L 576.30 274.80 Z" fill="#a6d1ff" fill-rule="nonzero" group-id="2" node-id="444" stroke="none" target-height="33.80002" target-width="19.700012" target-x="556.6" target-y="274.8"></path><path d="M 557.10 291.70 L 576.30 291.70" fill="none" group-id="2" node-id="446" stroke="#f3f9ff" stroke-linecap="butt" stroke-width="1.408" target-height="0" target-width="19.200012" target-x="557.1" target-y="291.7"></path><path d="M 518.60 362.10 L 543.90 362.10 L 543.90 426.90 L 518.60 426.90 L 518.60 362.10 Z" fill="#eef6ff" fill-rule="evenodd" group-id="2" node-id="448" stroke="#a6d1ff" stroke-linecap="butt" stroke-width="1.6896" target-height="64.79999" target-width="25.300049" target-x="518.6" target-y="362.1"></path><path d="M 529.90 370.60 L 524.20 370.60 L 524.20 379.00 L 529.90 379.00 L 529.90 370.60 Z" fill="#a6d1ff" fill-rule="nonzero" group-id="2" node-id="450" stroke="none" target-height="8.399994" target-width="5.700012" target-x="524.2" target-y="370.6"></path><path d="M 538.30 370.60 L 532.70 370.60 L 532.70 379.00 L 538.30 379.00 L 538.30 370.60 Z" fill="#a6d1ff" fill-rule="nonzero" group-id="2" node-id="452" stroke="none" target-height="8.399994" target-width="5.5999756" target-x="532.7" target-y="370.6"></path><path d="M 529.90 381.80 L 524.20 381.80 L 524.20 390.30 L 529.90 390.30 L 529.90 381.80 Z" fill="#a6d1ff" fill-rule="nonzero" group-id="2" node-id="454" stroke="none" target-height="8.5" target-width="5.700012" target-x="524.2" target-y="381.8"></path><path d="M 538.30 381.80 L 532.70 381.80 L 532.70 390.30 L 538.30 390.30 L 538.30 381.80 Z" fill="#a6d1ff" fill-rule="nonzero" group-id="2" node-id="456" stroke="none" target-height="8.5" target-width="5.5999756" target-x="532.7" target-y="381.8"></path><path d="M 563.70 422.70 L 500.30 422.70 L 500.30 428.30 L 563.70 428.30 L 563.70 422.70 Z" fill="#a6d1ff" fill-rule="nonzero" group-id="2" node-id="458" stroke="none" target-height="5.5999756" target-width="63.400024" target-x="500.3" target-y="422.7"></path><path d="M 555.20 417.00 L 508.70 417.00 L 508.70 422.70 L 555.20 422.70 L 555.20 417.00 Z" fill="#a6d1ff" fill-rule="nonzero" group-id="2" node-id="460" stroke="none" target-height="5.700012" target-width="46.5" target-x="508.7" target-y="417"></path><path d="M 507.30 362.10 L 482.00 362.10 L 482.00 401.60 L 507.30 401.60 L 507.30 362.10 Z" fill="#eef6ff" fill-rule="nonzero" group-id="2" node-id="462" stroke="#a6d1ff" stroke-linecap="butt" stroke-width="1.6896" target-height="39.5" target-width="25.299988" target-x="482" target-y="362.1"></path><path d="M 482.00 381.80 L 506.90 381.80" fill="none" group-id="2" node-id="464" stroke="#a6d1ff" stroke-linecap="butt" stroke-width="1.408" target-height="0" target-width="24.899994" target-x="482" target-y="381.8"></path><path d="M 580.60 362.10 L 555.20 362.10 L 555.20 401.60 L 580.60 401.60 L 580.60 362.10 Z" fill="#eef6ff" fill-rule="nonzero" group-id="2" node-id="466" stroke="#a6d1ff" stroke-linecap="butt" stroke-width="1.6896" target-height="39.5" target-width="25.399963" target-x="555.2" target-y="362.1"></path><path d="M 555.20 381.80 L 580.10 381.80" fill="none" group-id="2" node-id="468" stroke="#a6d1ff" stroke-linecap="butt" stroke-width="1.408" target-height="0" target-width="24.899963" target-x="555.2" target-y="381.8"></path><path d="M 580.60 343.80 L 555.20 343.80 L 555.20 357.90 L 580.60 357.90 L 580.60 343.80 Z" fill="#a6d1ff" fill-rule="nonzero" group-id="2" node-id="470" stroke="none" target-height="14.100006" target-width="25.399963" target-x="555.2" target-y="343.8"></path><path d="M 543.90 343.80 L 518.60 343.80 L 518.60 357.90 L 543.90 357.90 L 543.90 343.80 Z" fill="#a6d1ff" fill-rule="nonzero" group-id="2" node-id="472" stroke="none" target-height="14.100006" target-width="25.300049" target-x="518.6" target-y="343.8"></path><path d="M 507.30 343.80 L 482.00 343.80 L 482.00 357.90 L 507.30 357.90 L 507.30 343.80 Z" fill="#a6d1ff" fill-rule="nonzero" group-id="2" node-id="474" stroke="none" target-height="14.100006" target-width="25.299988" target-x="482" target-y="343.8"></path><path d="M 597.40 324.10 L 465.10 324.10 L 465.10 328.30 L 597.40 328.30 L 597.40 324.10 Z" fill="#a6d1ff" fill-rule="nonzero" group-id="2" node-id="476" stroke="none" target-height="4.1999817" target-width="132.30002" target-x="465.1" target-y="324.1"></path><path d="M 539.70 404.40 L 522.80 404.40 L 522.80 412.80 L 539.70 412.80 L 539.70 404.40 Z" fill="none" group-id="2" node-id="478" stroke="#a6d1ff" stroke-linecap="butt" stroke-width="1.408" target-height="8.399994" target-width="16.900024" target-x="522.8" target-y="404.4"></path><path d="M 634.80 344.50 L 634.80 428.30" fill="none" group-id="2" node-id="480" stroke="#89c1fc" stroke-linecap="butt" stroke-width="1.408" target-height="83.79999" target-width="0" target-x="634.8" target-y="344.5"></path><path d="M 634.80 355.10 L 638.50 354.40 L 641.60 352.60 L 643.90 349.90 L 644.70 348.20 L 645.30 344.50 L 644.70 340.80 L 643.90 339.20 L 641.60 336.50 L 638.50 334.60 L 634.80 334.00 L 631.10 334.60 L 629.40 335.40 L 626.70 337.70 L 624.90 340.80 L 624.20 344.50 L 624.90 348.20 L 625.60 349.90 L 627.90 352.60 L 631.10 354.40 L 634.80 355.10 Z" fill="#ffffff" fill-rule="nonzero" group-id="2" node-id="482" stroke="none" target-height="21.100006" target-width="21.099976" target-x="624.2" target-y="334"></path><path d="M 433.40 344.50 L 433.40 428.30" fill="none" group-id="2" node-id="484" stroke="#89c1fc" stroke-linecap="butt" stroke-width="1.408" target-height="83.79999" target-width="0" target-x="433.4" target-y="344.5"></path><path d="M 433.40 355.10 L 437.10 354.40 L 438.70 353.70 L 441.50 351.30 L 443.30 348.20 L 444.00 344.50 L 443.30 340.80 L 441.50 337.70 L 438.70 335.40 L 435.30 334.20 L 431.50 334.20 L 429.70 334.60 L 426.60 336.50 L 424.30 339.20 L 423.50 340.80 L 422.90 344.50 L 423.50 348.20 L 424.30 349.90 L 426.60 352.60 L 429.70 354.40 L 433.40 355.10 Z" fill="#ffffff" fill-rule="nonzero" group-id="2" node-id="486" stroke="none" target-height="20.899994" target-width="21.100006" target-x="422.9" target-y="334.2"></path></g><g node-id="580"><path d="M 311.50 640.90 L 309.50 683.70 L 319.60 683.70 L 319.60 676.80 L 331.90 683.70 L 371.70 683.70 L 371.80 681.60 L 371.50 679.80 L 370.70 678.20 L 369.30 676.70 L 367.30 675.40 L 352.30 668.70 L 330.40 659.60 L 332.40 640.90 L 311.50 640.90 Z" fill="#ffa990" fill-rule="nonzero" group-id="3" node-id="491" stroke="none" target-height="42.799988" target-width="62.299988" target-x="309.5" target-y="640.9"></path><path d="M 309.50 657.00 L 313.60 660.10 L 317.60 662.70 L 321.70 664.90 L 325.80 666.50 L 330.00 667.80 L 331.90 667.80 L 333.40 667.20 L 334.80 666.00 L 336.00 664.20 L 336.90 661.40 L 373.40 675.40 L 374.90 686.30 L 308.20 685.40 L 308.20 657.00 L 309.50 657.00 Z" fill="#201f1d" fill-rule="evenodd" group-id="3" node-id="493" stroke="none" target-height="29.299988" target-width="66.69998" target-x="308.2" target-y="657"></path></g><g node-id="581"><path d="M 255.50 640.90 L 255.50 683.70 L 265.60 683.70 L 265.60 676.80 L 277.90 683.70 L 317.70 683.70 L 317.80 681.60 L 317.50 679.80 L 316.70 678.20 L 315.30 676.70 L 313.30 675.40 L 298.30 668.70 L 276.40 659.60 L 276.40 640.90 L 255.50 640.90 Z" fill="#ffa990" fill-rule="nonzero" group-id="4" node-id="498" stroke="none" target-height="42.799988" target-width="62.299988" target-x="255.5" target-y="640.9"></path><path d="M 255.50 657.00 L 259.60 660.10 L 263.60 662.70 L 267.70 664.90 L 271.80 666.50 L 276.00 667.80 L 277.90 667.80 L 279.40 667.20 L 280.80 666.00 L 282.00 664.20 L 282.90 661.40 L 319.40 675.40 L 320.90 686.30 L 254.20 685.40 L 254.20 657.00 L 255.50 657.00 Z" fill="#201f1d" fill-rule="evenodd" group-id="4" node-id="500" stroke="none" target-height="29.299988" target-width="66.7" target-x="254.2" target-y="657"></path></g><path d="M 245.60 377.40 L 243.60 382.60 L 242.00 388.20 L 240.90 394.20 L 240.20 400.80 L 240.10 407.90 L 240.50 415.60 L 242.50 434.00 L 243.80 454.80 L 245.30 492.20 L 247.00 553.20 L 248.80 646.10 L 285.50 646.10 L 294.20 451.90 L 311.50 501.50 L 302.70 646.10 L 341.60 646.10 L 348.80 578.30 L 352.90 534.60 L 354.90 508.40 L 355.50 494.30 L 355.30 487.90 L 354.50 482.90 L 352.50 474.60 L 348.80 461.50 L 342.60 442.10 L 333.30 414.80 L 320.00 377.40 L 245.60 377.40 Z" fill="#222942" fill-rule="evenodd" node-id="503" stroke="none" target-height="268.69998" target-width="115.399994" target-x="240.1" target-y="377.4"></path><path d="M 406.30 252.70 L 409.50 249.20 L 410.80 247.30 L 411.00 246.40 L 410.30 235.90 L 413.10 226.10 L 414.50 227.00 L 415.30 228.20 L 415.60 229.70 L 415.60 234.30 L 416.60 238.00 L 432.70 217.40 L 434.10 216.10 L 435.10 215.70 L 435.90 216.00 L 436.30 216.70 L 436.20 217.70 L 430.30 228.40 L 437.90 219.30 L 439.30 218.20 L 440.20 218.00 L 440.80 218.20 L 441.20 218.70 L 441.10 219.70 L 434.20 232.00 L 440.50 224.50 L 441.30 223.90 L 442.00 223.70 L 443.30 224.70 L 443.30 225.40 L 437.30 235.60 L 442.40 230.60 L 443.80 230.10 L 444.80 230.80 L 444.80 231.40 L 439.60 239.90 L 433.90 248.00 L 428.50 253.70 L 425.70 255.90 L 422.30 257.90 L 418.80 262.40 L 402.60 286.90 L 391.10 303.50 L 383.30 314.00 L 378.20 320.20 L 375.00 323.30 L 373.20 324.50 L 371.40 325.00 L 369.00 325.00 L 365.80 324.20 L 361.30 322.50 L 355.50 319.40 L 347.80 314.60 L 337.90 307.60 L 351.90 285.80 L 366.00 297.20 L 406.30 252.70 Z" fill="#ffa990" fill-rule="evenodd" node-id="505" stroke="none" target-height="109.3" target-width="106.899994" target-x="337.9" target-y="215.7"></path><path d="M 432.90 223.80 L 429.10 230.50" fill="none" node-id="507" stroke="#4c1819" stroke-linecap="butt" stroke-width="1" target-height="6.699997" target-width="3.7999878" target-x="429.1" target-y="223.8"></path><path d="M 436.80 227.60 L 433.20 233.80" fill="none" node-id="509" stroke="#4c1819" stroke-linecap="butt" stroke-width="1" target-height="6.199997" target-width="3.5999756" target-x="433.2" target-y="227.6"></path><path d="M 439.80 231.50 L 436.60 236.40" fill="none" node-id="511" stroke="#4c1819" stroke-linecap="butt" stroke-width="1" target-height="4.899994" target-width="3.1999817" target-x="436.6" target-y="231.5"></path><path d="M 426.90 229.50 L 433.10 233.60 L 437.80 238.40" fill="none" node-id="513" stroke="#4c1819" stroke-linecap="butt" stroke-width="1" target-height="8.899994" target-width="10.899994" target-x="426.9" target-y="229.5"></path><path d="M 428.70 248.10 L 427.70 245.10 L 426.30 242.90 L 424.70 241.30 L 422.80 240.20 L 420.60 239.60 L 417.80 239.60 L 419.10 241.80 L 419.70 243.80 L 419.90 245.60 L 419.60 247.40 L 418.80 249.10 L 417.50 250.80" fill="none" node-id="515" stroke="#4c1819" stroke-linecap="butt" stroke-width="1" target-height="11.199997" target-width="11.200012" target-x="417.5" target-y="239.6"></path><path d="M 241.70 381.00 L 249.20 316.70 L 217.60 308.70 L 225.60 289.30 L 231.60 275.90 L 235.90 267.00 L 239.00 261.60 L 241.20 258.60 L 242.60 257.20 L 244.70 255.90 L 247.80 254.60 L 252.30 253.20 L 258.50 251.90 L 266.80 250.50 L 277.70 249.30 L 295.50 250.50 L 307.30 251.60 L 314.50 252.60 L 318.60 253.50 L 320.60 254.20 L 328.90 260.70 L 360.20 289.00 L 341.00 313.00 L 326.50 305.10 L 325.70 381.00 L 241.70 381.00 Z" fill="#3a3730" fill-rule="nonzero" node-id="517" stroke="none" target-height="131.7" target-width="142.6" target-x="217.6" target-y="249.3"></path><path d="M 289.70 337.60 L 302.50 330.70 L 306.70 331.00 L 315.30 330.10 L 314.80 332.30 L 314.00 333.70 L 311.10 335.00 L 307.00 335.80 L 322.50 344.20 L 326.70 346.00 L 331.90 346.60 L 336.70 346.10 L 337.50 346.40 L 337.90 346.90 L 337.80 347.90 L 337.20 348.60 L 334.80 349.70 L 327.30 350.50 L 324.40 350.20 L 328.80 351.50 L 334.30 351.80 L 340.10 351.50 L 340.80 351.80 L 341.10 352.50 L 341.10 353.30 L 340.70 353.90 L 337.50 355.10 L 331.60 355.80 L 325.00 355.40 L 330.50 356.90 L 337.10 357.20 L 337.90 357.40 L 338.50 358.20 L 338.40 358.70 L 337.90 359.20 L 334.10 360.20 L 322.20 360.00 L 329.50 363.40 L 329.80 364.40 L 328.30 364.40 L 321.70 362.30 L 319.30 361.20 L 310.30 355.50 L 304.90 352.70 L 301.60 351.80 L 298.30 351.70 L 292.10 352.50 L 271.10 360.00 L 255.20 365.20 L 243.60 368.50 L 235.30 370.30 L 229.70 371.10 L 226.00 371.20 L 223.70 370.90 L 222.40 370.10 L 221.20 368.80 L 220.10 366.50 L 219.30 363.00 L 218.70 357.80 L 218.70 350.50 L 219.30 340.50 L 220.80 327.10 L 223.50 309.70 L 249.50 316.50 L 245.60 346.00 L 289.70 337.60 Z" fill="#ffa990" fill-rule="evenodd" node-id="519" stroke="none" target-height="61.5" target-width="122.40001" target-x="218.7" target-y="309.7"></path><path d="M 328.00 351.60 L 324.30 351.00 L 320.00 349.60" fill="none" node-id="521" stroke="#4c1819" stroke-linecap="butt" stroke-width="1" target-height="2" target-width="8" target-x="320" target-y="349.6"></path><path d="M 327.90 356.80 L 323.50 355.80 L 319.90 354.50" fill="none" node-id="523" stroke="#4c1819" stroke-linecap="butt" stroke-width="1" target-height="2.2999878" target-width="8" target-x="319.9" target-y="354.5"></path><path d="M 323.70 361.50 L 318.70 359.20" fill="none" node-id="525" stroke="#4c1819" stroke-linecap="butt" stroke-width="1" target-height="2.2999878" target-width="5" target-x="318.7" target-y="359.2"></path><path d="M 326.10 286.80 L 326.10 342.60" fill="none" node-id="527" stroke="#052043" stroke-linecap="butt" stroke-width="1" target-height="55.80002" target-width="0" target-x="326.1" target-y="286.8"></path><path d="M 253.10 286.90 L 245.60 346.00" fill="none" node-id="529" stroke="#052043" stroke-linecap="butt" stroke-width="1" target-height="59.100006" target-width="7.5" target-x="245.6" target-y="286.9"></path><path d="M 249.40 316.50 L 222.50 309.70" fill="none" node-id="531" stroke="#052043" stroke-linecap="butt" stroke-width="1" target-height="6.799988" target-width="26.899994" target-x="222.5" target-y="309.7"></path><path d="M 314.80 207.30 L 316.40 203.20 L 317.10 200.10 L 317.20 198.00 L 316.90 196.40 L 316.20 195.30 L 315.10 194.50 L 313.50 194.10 L 313.70 191.90 L 313.40 190.10 L 312.80 188.70 L 311.80 187.40 L 310.40 186.40 L 308.40 185.60 L 302.40 184.20 L 293.70 183.10 L 289.00 183.00 L 284.50 183.40 L 281.60 184.00 L 279.10 184.90 L 277.00 186.10 L 274.50 188.60 L 273.30 192.30 L 271.00 192.90 L 269.20 193.90 L 267.80 195.30 L 266.70 197.30 L 266.10 199.90 L 265.80 203.40 L 266.20 208.00 L 267.50 213.90 L 270.00 220.50 L 272.40 225.60 L 274.60 229.30 L 276.80 232.00 L 278.70 233.90 L 280.60 235.10 L 281.80 235.40 L 283.50 235.20 L 285.80 234.40 L 288.90 232.60 L 293.00 229.40 L 298.50 224.50 L 305.70 217.30 L 314.80 207.30 Z" fill="#30150d" fill-rule="evenodd" node-id="533" stroke="none" target-height="52.399994" target-width="51.400024" target-x="265.8" target-y="183"></path><g node-id="582"><path d="M 281.50 221.90 L 279.80 220.40 L 278.00 217.50 L 277.70 214.50 L 278.70 212.40 L 279.60 211.80 L 280.90 211.50 L 282.50 212.10 L 283.80 214.00 L 285.30 219.40 L 285.70 219.10 L 285.90 217.90 L 285.80 214.80 L 287.10 214.10 L 288.10 213.00 L 288.90 211.30 L 289.40 208.70 L 294.20 208.30 L 298.10 207.50 L 301.30 206.30 L 303.70 204.90 L 305.70 203.20 L 307.10 201.30 L 308.20 199.10 L 308.80 196.60 L 310.90 198.80 L 313.60 200.60 L 314.30 218.00 L 314.10 224.00 L 312.80 231.80 L 311.20 235.90 L 309.20 238.20 L 306.20 239.30 L 303.40 239.40 L 299.20 239.00 L 298.40 243.20 L 298.20 246.40 L 298.40 248.80 L 299.00 250.60 L 302.50 255.10 L 303.60 257.20 L 304.30 260.80 L 303.40 263.50 L 302.40 264.50 L 300.70 265.50 L 298.20 266.40 L 296.00 266.80 L 293.60 266.60 L 291.10 265.90 L 288.40 264.60 L 285.40 262.50 L 282.20 259.60 L 278.60 255.50 L 274.60 250.30 L 281.50 221.90 Z" fill="#ffa990" fill-rule="nonzero" group-id="5" node-id="537" stroke="none" target-height="70.19998" target-width="39.69998" target-x="274.6" target-y="196.6"></path><path d="M 305.60 239.40 L 301.90 239.20 L 298.60 238.50 L 295.70 237.30 L 293.10 235.50 L 290.80 233.10 L 291.60 238.40 L 292.70 242.70 L 294.00 246.30 L 295.60 249.30 L 297.40 251.70 L 299.40 253.60 L 301.60 255.00 L 303.50 255.80 L 304.90 255.90 L 305.90 255.50 L 306.60 254.60 L 307.10 253.00 L 307.30 250.20 L 306.90 245.90 L 305.60 239.40 Z" fill="#e79279" fill-rule="evenodd" group-id="5" node-id="539" stroke="none" target-height="22.799988" target-width="16.5" target-x="290.8" target-y="233.1"></path><path d="M 309.90 214.20 L 311.50 218.80 L 312.00 222.40 L 311.70 222.90 L 310.80 223.30 L 307.80 223.30" fill="none" group-id="5" node-id="541" stroke="#4c1819" stroke-linecap="butt" stroke-width="1" target-height="9.100006" target-width="4.200012" target-x="307.8" target-y="214.2"></path><path d="M 312.60 215.00 L 311.80 214.70 L 311.50 214.00 L 311.80 213.30 L 312.60 213.00 L 313.30 213.30 L 313.60 214.00 L 313.30 214.70 L 312.60 215.00 Z" fill="#4c1819" fill-rule="nonzero" group-id="5" node-id="543" stroke="none" target-height="2" target-width="2.100006" target-x="311.5" target-y="213"></path><path d="M 304.10 215.00 L 303.40 214.70 L 303.10 214.00 L 303.40 213.30 L 304.10 213.00 L 304.80 213.30 L 305.10 214.00 L 304.80 214.70 L 304.10 215.00 Z" fill="#4c1819" fill-rule="nonzero" group-id="5" node-id="545" stroke="none" target-height="2" target-width="2" target-x="303.1" target-y="213"></path><path d="M 308.70 231.90 L 310.00 231.70 L 311.10 231.00 L 312.10 230.00 L 312.90 228.30 L 309.10 229.00 L 304.40 228.30 L 305.30 230.00 L 306.20 231.00 L 307.40 231.70 L 308.70 231.90 Z" fill="#ffffff" fill-rule="evenodd" group-id="5" node-id="547" stroke="none" target-height="3.5999908" target-width="8.5" target-x="304.4" target-y="228.3"></path><path d="M 306.10 210.10 L 304.40 209.60 L 302.90 209.50 L 301.30 209.80 L 299.80 210.60" fill="none" group-id="5" node-id="549" stroke="#4c1819" stroke-linecap="butt" stroke-width="1" target-height="1.1000061" target-width="6.3000183" target-x="299.8" target-y="209.5"></path><path d="M 313.60 210.00 L 312.50 209.60 L 311.30 209.70 L 309.90 210.40" fill="none" group-id="5" node-id="551" stroke="#4c1819" stroke-linecap="butt" stroke-width="1" target-height="0.7999878" target-width="3.7000122" target-x="309.9" target-y="209.6"></path></g><path d="M 469.50 435.50 L 402.90 502.70 L 401.90 504.00 L 401.20 506.80 L 401.90 509.70 L 402.90 510.90 L 449.90 558.00 L 451.20 559.00 L 454.00 559.70 L 456.90 559.00 L 458.20 558.00 L 523.10 491.30 L 523.10 435.50 L 469.50 435.50 Z M 500.10 467.70 L 496.80 467.10 L 493.50 465.00 L 492.10 463.10 L 491.20 461.00 L 490.90 458.50 L 491.40 455.30 L 493.50 452.00 L 495.40 450.60 L 498.40 449.50 L 500.10 449.30 L 503.30 449.90 L 504.70 450.60 L 506.60 452.00 L 508.70 455.30 L 509.30 458.50 L 508.70 461.70 L 506.60 465.00 L 503.30 467.10 L 500.10 467.70 Z" fill="#fecc59" fill-rule="nonzero" node-id="554" stroke="none" target-height="124.20001" target-width="121.89996" target-x="401.2" target-y="435.5"></path><path d="M 500.10 460.80 L 498.40 460.10 L 497.90 459.40 L 497.90 457.60 L 498.40 456.90 L 530.60 424.70 L 532.30 424.00 L 533.90 424.70 L 534.40 425.40 L 534.40 427.20 L 533.90 427.90 L 501.70 460.10 L 500.10 460.80 Z" fill="#a6d1ff" fill-rule="nonzero" node-id="556" stroke="none" target-height="36.799988" target-width="36.50003" target-x="497.9" target-y="424"></path><path d="M 497.20 495.90 L 472.80 520.30 L 472.30 521.10 L 472.30 522.80 L 473.50 524.10 L 475.30 524.10 L 500.40 499.20 L 501.10 497.60 L 500.40 495.90 L 498.80 495.30 L 497.20 495.90 Z" fill="#eef6ff" fill-rule="nonzero" node-id="558" stroke="none" target-height="28.799988" target-width="28.800018" target-x="472.3" target-y="495.3"></path><path d="M 508.50 487.80 L 506.90 487.20 L 505.30 487.80 L 504.60 489.40 L 505.30 491.10 L 506.90 491.70 L 508.50 491.10 L 509.20 489.40 L 508.50 487.80 Z" fill="#eef6ff" fill-rule="nonzero" node-id="560" stroke="none" target-height="4.5" target-width="4.600006" target-x="504.6" target-y="487.2"></path><path d="M 485.80 468.30 L 486.50 466.70 L 485.80 465.00 L 484.20 464.40 L 482.50 465.00 L 458.10 489.40 L 457.50 491.10 L 458.10 492.70 L 459.80 493.40 L 461.40 492.70 L 485.80 468.30 Z" fill="#eef6ff" fill-rule="nonzero" node-id="562" stroke="none" target-height="29" target-width="29" target-x="457.5" target-y="464.4"></path><path d="M 477.70 495.90 L 479.30 496.60 L 480.90 495.90 L 497.20 479.70 L 497.80 478.10 L 497.20 476.40 L 495.50 475.80 L 493.90 476.40 L 477.70 492.70 L 477.00 494.30 L 477.70 495.90 Z" fill="#eef6ff" fill-rule="nonzero" node-id="564" stroke="none" target-height="20.800018" target-width="20.799988" target-x="477" target-y="475.8"></path><path d="M 464.60 505.70 L 461.40 509.00 L 460.70 510.60 L 461.40 512.20 L 462.20 512.70 L 463.90 512.70 L 467.90 509.00 L 468.60 507.30 L 467.90 505.70 L 467.10 505.20 L 465.40 505.20 L 464.60 505.70 Z" fill="#eef6ff" fill-rule="nonzero" node-id="566" stroke="none" target-height="7.5" target-width="7.899994" target-x="460.7" target-y="505.2"></path><path d="M 466.30 461.80 L 464.60 461.10 L 463.00 461.80 L 438.60 486.20 L 438.10 487.00 L 438.10 488.70 L 439.40 489.90 L 441.10 489.90 L 441.90 489.40 L 466.30 465.00 L 466.90 463.40 L 466.30 461.80 Z" fill="#eef6ff" fill-rule="nonzero" node-id="568" stroke="none" target-height="28.799988" target-width="28.799988" target-x="438.1" target-y="461.1"></path><path d="M 472.80 457.60 L 474.40 456.90 L 475.10 455.30 L 474.40 453.60 L 473.60 453.20 L 471.90 453.20 L 471.10 453.70 L 470.50 455.30 L 471.10 456.90 L 472.80 457.60 Z" fill="#eef6ff" fill-rule="nonzero" node-id="570" stroke="none" target-height="4.399994" target-width="4.600006" target-x="470.5" target-y="453.2"></path><path d="M 451.60 495.90 L 451.10 496.70 L 451.10 498.50 L 452.40 499.70 L 454.10 499.70 L 455.40 498.50 L 455.40 496.70 L 454.10 495.50 L 452.40 495.50 L 451.60 495.90 Z" fill="#eef6ff" fill-rule="nonzero" node-id="572" stroke="none" target-height="4.200012" target-width="4.299988" target-x="451.1" target-y="495.5"></path><path d="M 474.40 502.50 L 475.10 500.80 L 474.40 499.20 L 472.80 498.50 L 471.10 499.20 L 470.50 500.80 L 471.10 502.50 L 472.80 503.10 L 474.40 502.50 Z" fill="#eef6ff" fill-rule="nonzero" node-id="574" stroke="none" target-height="4.600006" target-width="4.600006" target-x="470.5" target-y="498.5"></path><path d="M 458.10 535.00 L 456.70 533.50 L 457.90 531.30 L 458.50 528.80 L 458.60 526.20 L 458.10 524.10 L 457.10 522.30 L 455.60 520.70 L 454.20 519.80 L 451.00 518.90 L 442.90 519.70 L 434.00 510.90 L 436.00 510.30 L 438.10 510.30 L 440.70 511.30 L 442.60 512.70 L 444.40 512.70 L 445.10 512.20 L 445.80 510.60 L 445.10 509.00 L 443.00 507.30 L 440.60 506.20 L 438.10 505.60 L 435.50 505.70 L 433.00 506.30 L 430.70 507.50 L 428.10 505.20 L 426.40 505.20 L 425.60 505.70 L 425.10 506.50 L 425.10 508.20 L 427.40 510.80 L 425.90 514.20 L 425.50 516.10 L 425.50 518.00 L 426.40 521.10 L 428.50 523.60 L 431.40 525.10 L 434.80 525.40 L 441.20 524.60 L 450.00 533.40 L 448.00 534.00 L 445.90 533.90 L 443.40 533.00 L 441.50 531.60 L 439.70 531.60 L 438.50 532.90 L 438.50 534.60 L 440.70 536.80 L 442.70 537.80 L 444.80 538.50 L 447.10 538.70 L 449.40 538.50 L 451.50 537.80 L 453.50 536.80 L 454.90 538.20 L 456.50 538.90 L 458.10 538.20 L 458.60 537.50 L 458.60 535.70 L 458.10 535.00 Z M 434.20 520.80 L 432.70 520.70 L 431.40 520.00 L 430.50 518.90 L 430.10 517.70 L 430.20 515.80 L 430.80 514.10 L 437.10 520.40 L 434.20 520.80 Z M 449.90 523.50 L 451.40 523.60 L 452.70 524.30 L 453.60 525.40 L 454.00 526.60 L 453.90 528.50 L 453.30 530.20 L 447.00 523.90 L 449.90 523.50 Z" fill="#ffffff" fill-rule="nonzero" node-id="576" stroke="none" target-height="33.700012" target-width="33.5" target-x="425.1" target-y="505.2"></path></svg>